# xmcd
#
# Track frame offsets: 
#        150
#        9167
#        28402
#        40345
#        42241
#        56090
#        78632
#        80968
#        98404
#        123571
#        124821
#        142456
#        160453
#        162300
#        178269
#        201843
#        203376
#        220154
#        238332
#
# Disc length: 3264 seconds
#
# Revision: 0
# Processed by: cddbd v1.5.2PL0 Copyright (c) Steve Scherf et al.
# Submitted via: ExactAudioCopy v0.95a4
#
DISCID=1c0cbe13
DTITLE=Various Artist - The Best Of Austin City Limits: Women In Song
DYEAR=2000
DGENRE=Country
TTITLE0=Austin City Limits - Austin City Limits Theme
TTITLE1=Mary Chapin Carpenter - Never Had It So Good
TTITLE2=Lucinda Williams - Passionate Kisses
TTITLE3=Austin City Limits - Intros
TTITLE4=Roseanne Cash - My Old Man
TTITLE5=Carlene Carter - The Wildwood Rose
TTITLE6=Austin City Limits - Intros
TTITLE7=Nanci Griffith - A Hard Life
TTITLE8=Tish Hinajosa - Something In The Rain
TTITLE9=Austin City Limits - Intros
TTITLE10=Suzanne Vega - If You Were In My Movie
TTITLE11=Shawn Colvin - Another Round Of Blues
TTITLE12=Austin City Limits - Intros
TTITLE13=Michelle Shocked - Memories Of East Texas
TTITLE14=Iris Dement - Our Town
TTITLE15=Austin City Limits - Intros
TTITLE16=Kim Richey - I'm All Right
TTITLE17=Sheryl Crow - A Change Would Do You Good
TTITLE18=Austin City Limits - Closing Theme
EXTD=
EXTT0=
EXTT1=
EXTT2=
EXTT3=
EXTT4=
EXTT5=
EXTT6=
EXTT7=
EXTT8=
EXTT9=
EXTT10=
EXTT11=
EXTT12=
EXTT13=
EXTT14=
EXTT15=
EXTT16=
EXTT17=
EXTT18=
PLAYORDER=
